<mxfile host="app.diagrams.net" modified="2023-03-03T15:19:59.487Z" agent="5.0 (Windows NT 10.0; Win64; x64) AppleWebKit/537.36 (KHTML, like Gecko) Chrome/110.0.0.0 Safari/537.36" etag="0s_bCVqTPlMak2kjZdJx" version="20.8.23" type="github">
  <diagram name="Page-1" id="se5P5048dr1RO_rwxQzP">
    <mxGraphModel dx="1192" dy="427" grid="1" gridSize="10" guides="1" tooltips="1" connect="1" arrows="1" fold="1" page="1" pageScale="1" pageWidth="850" pageHeight="1100" math="0" shadow="0">
      <root>
        <mxCell id="0" />
        <mxCell id="1" parent="0" />
        <mxCell id="IpJIwdVtqQLgT5UMToAP-4" value="VPC" style="points=[[0,0],[0.25,0],[0.5,0],[0.75,0],[1,0],[1,0.25],[1,0.5],[1,0.75],[1,1],[0.75,1],[0.5,1],[0.25,1],[0,1],[0,0.75],[0,0.5],[0,0.25]];outlineConnect=0;gradientColor=none;html=1;whiteSpace=wrap;fontSize=12;fontStyle=0;container=0;pointerEvents=0;collapsible=0;recursiveResize=0;shape=mxgraph.aws4.group;grIcon=mxgraph.aws4.group_vpc;strokeColor=#0000CC;fillColor=none;verticalAlign=top;align=left;spacingLeft=30;fontColor=#AAB7B8;dashed=0;" vertex="1" parent="1">
          <mxGeometry x="60" y="620" width="740" height="820" as="geometry" />
        </mxCell>
        <mxCell id="IpJIwdVtqQLgT5UMToAP-5" value="Private subnet A1" style="points=[[0,0],[0.25,0],[0.5,0],[0.75,0],[1,0],[1,0.25],[1,0.5],[1,0.75],[1,1],[0.75,1],[0.5,1],[0.25,1],[0,1],[0,0.75],[0,0.5],[0,0.25]];outlineConnect=0;gradientColor=none;html=1;whiteSpace=wrap;fontSize=12;fontStyle=0;container=1;pointerEvents=0;collapsible=0;recursiveResize=0;shape=mxgraph.aws4.group;grIcon=mxgraph.aws4.group_security_group;grStroke=0;strokeColor=#147EBA;fillColor=#E6F2F8;verticalAlign=top;align=left;spacingLeft=30;fontColor=#147EBA;dashed=0;" vertex="1" parent="1">
          <mxGeometry x="150" y="805" width="120" height="120" as="geometry" />
        </mxCell>
        <mxCell id="IpJIwdVtqQLgT5UMToAP-10" value="" style="sketch=0;points=[[0,0,0],[0.25,0,0],[0.5,0,0],[0.75,0,0],[1,0,0],[0,1,0],[0.25,1,0],[0.5,1,0],[0.75,1,0],[1,1,0],[0,0.25,0],[0,0.5,0],[0,0.75,0],[1,0.25,0],[1,0.5,0],[1,0.75,0]];outlineConnect=0;fontColor=#232F3E;gradientColor=#F78E04;gradientDirection=north;fillColor=#D05C17;strokeColor=#ffffff;dashed=0;verticalLabelPosition=bottom;verticalAlign=top;align=center;html=1;fontSize=12;fontStyle=0;aspect=fixed;shape=mxgraph.aws4.resourceIcon;resIcon=mxgraph.aws4.ec2;" vertex="1" parent="IpJIwdVtqQLgT5UMToAP-5">
          <mxGeometry x="30" y="35" width="59" height="59" as="geometry" />
        </mxCell>
        <mxCell id="IpJIwdVtqQLgT5UMToAP-13" value="&lt;font&gt;web server&lt;/font&gt;" style="text;strokeColor=none;align=center;fillColor=none;html=1;verticalAlign=middle;whiteSpace=wrap;rounded=0;fontColor=#0000CC;" vertex="1" parent="IpJIwdVtqQLgT5UMToAP-5">
          <mxGeometry x="30" y="105" width="65" height="10" as="geometry" />
        </mxCell>
        <mxCell id="IpJIwdVtqQLgT5UMToAP-6" value="Private subnet A2" style="points=[[0,0],[0.25,0],[0.5,0],[0.75,0],[1,0],[1,0.25],[1,0.5],[1,0.75],[1,1],[0.75,1],[0.5,1],[0.25,1],[0,1],[0,0.75],[0,0.5],[0,0.25]];outlineConnect=0;gradientColor=none;html=1;whiteSpace=wrap;fontSize=12;fontStyle=0;container=1;pointerEvents=0;collapsible=0;recursiveResize=0;shape=mxgraph.aws4.group;grIcon=mxgraph.aws4.group_security_group;grStroke=0;strokeColor=#147EBA;fillColor=#E6F2F8;verticalAlign=top;align=left;spacingLeft=30;fontColor=#147EBA;dashed=0;" vertex="1" parent="1">
          <mxGeometry x="160" y="1005" width="120" height="120" as="geometry" />
        </mxCell>
        <mxCell id="IpJIwdVtqQLgT5UMToAP-11" value="" style="sketch=0;points=[[0,0,0],[0.25,0,0],[0.5,0,0],[0.75,0,0],[1,0,0],[0,1,0],[0.25,1,0],[0.5,1,0],[0.75,1,0],[1,1,0],[0,0.25,0],[0,0.5,0],[0,0.75,0],[1,0.25,0],[1,0.5,0],[1,0.75,0]];outlineConnect=0;fontColor=#232F3E;gradientColor=#F78E04;gradientDirection=north;fillColor=#D05C17;strokeColor=#ffffff;dashed=0;verticalLabelPosition=bottom;verticalAlign=top;align=center;html=1;fontSize=12;fontStyle=0;aspect=fixed;shape=mxgraph.aws4.resourceIcon;resIcon=mxgraph.aws4.ec2;" vertex="1" parent="IpJIwdVtqQLgT5UMToAP-6">
          <mxGeometry x="30.5" y="40" width="59" height="59" as="geometry" />
        </mxCell>
        <mxCell id="IpJIwdVtqQLgT5UMToAP-12" value="" style="shape=image;html=1;verticalAlign=top;verticalLabelPosition=bottom;labelBackgroundColor=#ffffff;imageAspect=0;aspect=fixed;image=https://cdn2.iconfinder.com/data/icons/crystalproject/128x128/apps/linuxconf.png;strokeColor=#0000CC;" vertex="1" parent="IpJIwdVtqQLgT5UMToAP-6">
          <mxGeometry x="43.5" y="60" width="26" height="26" as="geometry" />
        </mxCell>
        <mxCell id="IpJIwdVtqQLgT5UMToAP-16" value="&lt;font&gt;App server&lt;/font&gt;" style="text;strokeColor=none;align=center;fillColor=none;html=1;verticalAlign=middle;whiteSpace=wrap;rounded=0;fontColor=#0000CC;" vertex="1" parent="IpJIwdVtqQLgT5UMToAP-6">
          <mxGeometry x="24" y="110" width="65" height="10" as="geometry" />
        </mxCell>
        <mxCell id="IpJIwdVtqQLgT5UMToAP-8" value="Private subnet A3" style="points=[[0,0],[0.25,0],[0.5,0],[0.75,0],[1,0],[1,0.25],[1,0.5],[1,0.75],[1,1],[0.75,1],[0.5,1],[0.25,1],[0,1],[0,0.75],[0,0.5],[0,0.25]];outlineConnect=0;gradientColor=none;html=1;whiteSpace=wrap;fontSize=12;fontStyle=0;container=1;pointerEvents=0;collapsible=0;recursiveResize=0;shape=mxgraph.aws4.group;grIcon=mxgraph.aws4.group_security_group;grStroke=0;strokeColor=#147EBA;fillColor=#E6F2F8;verticalAlign=top;align=left;spacingLeft=30;fontColor=#147EBA;dashed=0;" vertex="1" parent="1">
          <mxGeometry x="160" y="1220" width="120" height="120" as="geometry" />
        </mxCell>
        <mxCell id="IpJIwdVtqQLgT5UMToAP-9" value="" style="sketch=0;outlineConnect=0;fontColor=#232F3E;gradientColor=none;fillColor=#2E27AD;strokeColor=none;dashed=0;verticalLabelPosition=bottom;verticalAlign=top;align=center;html=1;fontSize=12;fontStyle=0;aspect=fixed;pointerEvents=1;shape=mxgraph.aws4.rds_instance;" vertex="1" parent="IpJIwdVtqQLgT5UMToAP-8">
          <mxGeometry x="26.5" y="40" width="60" height="60" as="geometry" />
        </mxCell>
        <mxCell id="IpJIwdVtqQLgT5UMToAP-18" value="master" style="text;strokeColor=none;align=center;fillColor=none;html=1;verticalAlign=middle;whiteSpace=wrap;rounded=0;fontColor=#0000CC;" vertex="1" parent="IpJIwdVtqQLgT5UMToAP-8">
          <mxGeometry x="21.5" y="110" width="65" height="10" as="geometry" />
        </mxCell>
        <mxCell id="IpJIwdVtqQLgT5UMToAP-19" value="Availability Zone A" style="fillColor=none;strokeColor=#147EBA;dashed=1;verticalAlign=top;fontStyle=0;fontColor=#147EBA;movable=1;resizable=1;rotatable=1;deletable=1;editable=1;locked=0;connectable=1;" vertex="1" parent="1">
          <mxGeometry x="120" y="600" width="200" height="800" as="geometry" />
        </mxCell>
        <mxCell id="IpJIwdVtqQLgT5UMToAP-27" value="Private subnet B1" style="points=[[0,0],[0.25,0],[0.5,0],[0.75,0],[1,0],[1,0.25],[1,0.5],[1,0.75],[1,1],[0.75,1],[0.5,1],[0.25,1],[0,1],[0,0.75],[0,0.5],[0,0.25]];outlineConnect=0;gradientColor=none;html=1;whiteSpace=wrap;fontSize=12;fontStyle=0;container=1;pointerEvents=0;collapsible=0;recursiveResize=0;shape=mxgraph.aws4.group;grIcon=mxgraph.aws4.group_security_group;grStroke=0;strokeColor=#147EBA;fillColor=#E6F2F8;verticalAlign=top;align=left;spacingLeft=30;fontColor=#147EBA;dashed=0;" vertex="1" parent="1">
          <mxGeometry x="550" y="805" width="120" height="120" as="geometry" />
        </mxCell>
        <mxCell id="IpJIwdVtqQLgT5UMToAP-28" value="" style="sketch=0;points=[[0,0,0],[0.25,0,0],[0.5,0,0],[0.75,0,0],[1,0,0],[0,1,0],[0.25,1,0],[0.5,1,0],[0.75,1,0],[1,1,0],[0,0.25,0],[0,0.5,0],[0,0.75,0],[1,0.25,0],[1,0.5,0],[1,0.75,0]];outlineConnect=0;fontColor=#232F3E;gradientColor=#F78E04;gradientDirection=north;fillColor=#D05C17;strokeColor=#ffffff;dashed=0;verticalLabelPosition=bottom;verticalAlign=top;align=center;html=1;fontSize=12;fontStyle=0;aspect=fixed;shape=mxgraph.aws4.resourceIcon;resIcon=mxgraph.aws4.ec2;" vertex="1" parent="IpJIwdVtqQLgT5UMToAP-27">
          <mxGeometry x="30" y="35" width="59" height="59" as="geometry" />
        </mxCell>
        <mxCell id="IpJIwdVtqQLgT5UMToAP-29" value="&lt;font&gt;web server&lt;/font&gt;" style="text;strokeColor=none;align=center;fillColor=none;html=1;verticalAlign=middle;whiteSpace=wrap;rounded=0;fontColor=#0000CC;" vertex="1" parent="IpJIwdVtqQLgT5UMToAP-27">
          <mxGeometry x="30" y="105" width="65" height="10" as="geometry" />
        </mxCell>
        <mxCell id="IpJIwdVtqQLgT5UMToAP-30" value="Private subnet B2" style="points=[[0,0],[0.25,0],[0.5,0],[0.75,0],[1,0],[1,0.25],[1,0.5],[1,0.75],[1,1],[0.75,1],[0.5,1],[0.25,1],[0,1],[0,0.75],[0,0.5],[0,0.25]];outlineConnect=0;gradientColor=none;html=1;whiteSpace=wrap;fontSize=12;fontStyle=0;container=1;pointerEvents=0;collapsible=0;recursiveResize=0;shape=mxgraph.aws4.group;grIcon=mxgraph.aws4.group_security_group;grStroke=0;strokeColor=#147EBA;fillColor=#E6F2F8;verticalAlign=top;align=left;spacingLeft=30;fontColor=#147EBA;dashed=0;" vertex="1" parent="1">
          <mxGeometry x="560" y="1005" width="120" height="120" as="geometry" />
        </mxCell>
        <mxCell id="IpJIwdVtqQLgT5UMToAP-31" value="" style="sketch=0;points=[[0,0,0],[0.25,0,0],[0.5,0,0],[0.75,0,0],[1,0,0],[0,1,0],[0.25,1,0],[0.5,1,0],[0.75,1,0],[1,1,0],[0,0.25,0],[0,0.5,0],[0,0.75,0],[1,0.25,0],[1,0.5,0],[1,0.75,0]];outlineConnect=0;fontColor=#232F3E;gradientColor=#F78E04;gradientDirection=north;fillColor=#D05C17;strokeColor=#ffffff;dashed=0;verticalLabelPosition=bottom;verticalAlign=top;align=center;html=1;fontSize=12;fontStyle=0;aspect=fixed;shape=mxgraph.aws4.resourceIcon;resIcon=mxgraph.aws4.ec2;" vertex="1" parent="IpJIwdVtqQLgT5UMToAP-30">
          <mxGeometry x="30.5" y="40" width="59" height="59" as="geometry" />
        </mxCell>
        <mxCell id="IpJIwdVtqQLgT5UMToAP-32" value="" style="shape=image;html=1;verticalAlign=top;verticalLabelPosition=bottom;labelBackgroundColor=#ffffff;imageAspect=0;aspect=fixed;image=https://cdn2.iconfinder.com/data/icons/crystalproject/128x128/apps/linuxconf.png;strokeColor=#0000CC;" vertex="1" parent="IpJIwdVtqQLgT5UMToAP-30">
          <mxGeometry x="43.5" y="60" width="26" height="26" as="geometry" />
        </mxCell>
        <mxCell id="IpJIwdVtqQLgT5UMToAP-33" value="&lt;font&gt;App server&lt;/font&gt;" style="text;strokeColor=none;align=center;fillColor=none;html=1;verticalAlign=middle;whiteSpace=wrap;rounded=0;fontColor=#0000CC;" vertex="1" parent="IpJIwdVtqQLgT5UMToAP-30">
          <mxGeometry x="24" y="110" width="65" height="10" as="geometry" />
        </mxCell>
        <mxCell id="IpJIwdVtqQLgT5UMToAP-34" value="Private subnet B3" style="points=[[0,0],[0.25,0],[0.5,0],[0.75,0],[1,0],[1,0.25],[1,0.5],[1,0.75],[1,1],[0.75,1],[0.5,1],[0.25,1],[0,1],[0,0.75],[0,0.5],[0,0.25]];outlineConnect=0;gradientColor=none;html=1;whiteSpace=wrap;fontSize=12;fontStyle=0;container=1;pointerEvents=0;collapsible=0;recursiveResize=0;shape=mxgraph.aws4.group;grIcon=mxgraph.aws4.group_security_group;grStroke=0;strokeColor=#147EBA;fillColor=#E6F2F8;verticalAlign=top;align=left;spacingLeft=30;fontColor=#147EBA;dashed=0;" vertex="1" parent="1">
          <mxGeometry x="560" y="1220" width="120" height="120" as="geometry" />
        </mxCell>
        <mxCell id="IpJIwdVtqQLgT5UMToAP-35" value="" style="sketch=0;outlineConnect=0;fontColor=#232F3E;gradientColor=none;fillColor=#2E27AD;strokeColor=none;dashed=0;verticalLabelPosition=bottom;verticalAlign=top;align=center;html=1;fontSize=12;fontStyle=0;aspect=fixed;pointerEvents=1;shape=mxgraph.aws4.rds_instance;" vertex="1" parent="IpJIwdVtqQLgT5UMToAP-34">
          <mxGeometry x="26.5" y="40" width="60" height="60" as="geometry" />
        </mxCell>
        <mxCell id="IpJIwdVtqQLgT5UMToAP-36" value="master" style="text;strokeColor=none;align=center;fillColor=none;html=1;verticalAlign=middle;whiteSpace=wrap;rounded=0;fontColor=#0000CC;" vertex="1" parent="IpJIwdVtqQLgT5UMToAP-34">
          <mxGeometry x="21.5" y="110" width="65" height="10" as="geometry" />
        </mxCell>
        <mxCell id="IpJIwdVtqQLgT5UMToAP-37" value="Availability Zone B" style="fillColor=none;strokeColor=#3333FF;dashed=1;verticalAlign=top;fontStyle=0;fontColor=#147EBA;movable=1;resizable=1;rotatable=1;deletable=1;editable=1;locked=0;connectable=1;" vertex="1" parent="1">
          <mxGeometry x="520" y="600" width="200" height="800" as="geometry" />
        </mxCell>
        <mxCell id="IpJIwdVtqQLgT5UMToAP-39" value="Auto Scaling group" style="points=[[0,0],[0.25,0],[0.5,0],[0.75,0],[1,0],[1,0.25],[1,0.5],[1,0.75],[1,1],[0.75,1],[0.5,1],[0.25,1],[0,1],[0,0.75],[0,0.5],[0,0.25]];outlineConnect=0;gradientColor=none;html=1;whiteSpace=wrap;fontSize=12;fontStyle=0;container=1;pointerEvents=0;collapsible=0;recursiveResize=0;shape=mxgraph.aws4.groupCenter;grIcon=mxgraph.aws4.group_auto_scaling_group;grStroke=1;strokeColor=#D86613;fillColor=none;verticalAlign=top;align=center;fontColor=#D86613;dashed=1;spacingTop=25;" vertex="1" parent="1">
          <mxGeometry x="130" y="799" width="580" height="143" as="geometry" />
        </mxCell>
        <mxCell id="IpJIwdVtqQLgT5UMToAP-43" value="" style="shape=image;html=1;verticalAlign=top;verticalLabelPosition=bottom;labelBackgroundColor=#ffffff;imageAspect=0;aspect=fixed;image=https://cdn2.iconfinder.com/data/icons/crystalproject/128x128/apps/linuxconf.png;labelBorderColor=#FF9933;strokeColor=#3333FF;strokeWidth=1;fontColor=#D86613;" vertex="1" parent="IpJIwdVtqQLgT5UMToAP-39">
          <mxGeometry x="480.5" y="60" width="20.5" height="20.5" as="geometry" />
        </mxCell>
        <mxCell id="IpJIwdVtqQLgT5UMToAP-44" value="" style="shape=image;html=1;verticalAlign=top;verticalLabelPosition=bottom;labelBackgroundColor=#ffffff;imageAspect=0;aspect=fixed;image=https://cdn2.iconfinder.com/data/icons/crystalproject/128x128/apps/linuxconf.png;labelBorderColor=#FF9933;strokeColor=#3333FF;strokeWidth=1;fontColor=#D86613;" vertex="1" parent="IpJIwdVtqQLgT5UMToAP-39">
          <mxGeometry x="80" y="60" width="23" height="23" as="geometry" />
        </mxCell>
        <mxCell id="IpJIwdVtqQLgT5UMToAP-40" value="Auto Scaling group" style="points=[[0,0],[0.25,0],[0.5,0],[0.75,0],[1,0],[1,0.25],[1,0.5],[1,0.75],[1,1],[0.75,1],[0.5,1],[0.25,1],[0,1],[0,0.75],[0,0.5],[0,0.25]];outlineConnect=0;gradientColor=none;html=1;whiteSpace=wrap;fontSize=12;fontStyle=0;container=1;pointerEvents=0;collapsible=0;recursiveResize=0;shape=mxgraph.aws4.groupCenter;grIcon=mxgraph.aws4.group_auto_scaling_group;grStroke=1;strokeColor=#D86613;fillColor=none;verticalAlign=top;align=center;fontColor=#D86613;dashed=1;spacingTop=25;" vertex="1" parent="1">
          <mxGeometry x="130" y="1000" width="580" height="130" as="geometry" />
        </mxCell>
        <mxCell id="IpJIwdVtqQLgT5UMToAP-41" value="" style="sketch=0;points=[[0,0,0],[0.25,0,0],[0.5,0,0],[0.75,0,0],[1,0,0],[0,1,0],[0.25,1,0],[0.5,1,0],[0.75,1,0],[1,1,0],[0,0.25,0],[0,0.5,0],[0,0.75,0],[1,0.25,0],[1,0.5,0],[1,0.75,0]];outlineConnect=0;fontColor=#232F3E;gradientColor=#4D72F3;gradientDirection=north;fillColor=#3334B9;strokeColor=#ffffff;dashed=0;verticalLabelPosition=bottom;verticalAlign=top;align=center;html=1;fontSize=12;fontStyle=0;aspect=fixed;shape=mxgraph.aws4.resourceIcon;resIcon=mxgraph.aws4.rds;" vertex="1" parent="1">
          <mxGeometry x="407" y="1230" width="36" height="36" as="geometry" />
        </mxCell>
        <mxCell id="IpJIwdVtqQLgT5UMToAP-42" value="" style="rounded=1;arcSize=10;dashed=1;fillColor=none;gradientColor=none;dashPattern=8 3 1 3;strokeWidth=1;strokeColor=#0000CC;fontColor=#D86613;labelBorderColor=#FF9933;" vertex="1" parent="1">
          <mxGeometry x="130" y="1220" width="580" height="140" as="geometry" />
        </mxCell>
        <mxCell id="IpJIwdVtqQLgT5UMToAP-49" style="edgeStyle=orthogonalEdgeStyle;rounded=0;orthogonalLoop=1;jettySize=auto;html=1;fontColor=#3333FF;" edge="1" parent="1" source="IpJIwdVtqQLgT5UMToAP-45">
          <mxGeometry relative="1" as="geometry">
            <mxPoint x="620" y="600" as="targetPoint" />
          </mxGeometry>
        </mxCell>
        <mxCell id="IpJIwdVtqQLgT5UMToAP-50" style="edgeStyle=orthogonalEdgeStyle;rounded=0;orthogonalLoop=1;jettySize=auto;html=1;fontColor=#3333FF;" edge="1" parent="1" source="IpJIwdVtqQLgT5UMToAP-45">
          <mxGeometry relative="1" as="geometry">
            <mxPoint x="211" y="600" as="targetPoint" />
          </mxGeometry>
        </mxCell>
        <mxCell id="IpJIwdVtqQLgT5UMToAP-45" value="" style="sketch=0;outlineConnect=0;fontColor=#232F3E;gradientColor=none;fillColor=#4D27AA;strokeColor=none;dashed=0;verticalLabelPosition=bottom;verticalAlign=top;align=center;html=1;fontSize=12;fontStyle=0;aspect=fixed;pointerEvents=1;shape=mxgraph.aws4.application_load_balancer;labelBorderColor=#FF9933;strokeWidth=1;" vertex="1" parent="1">
          <mxGeometry x="401" y="470" width="48" height="48" as="geometry" />
        </mxCell>
        <mxCell id="IpJIwdVtqQLgT5UMToAP-46" value="application load balancer" style="text;strokeColor=none;align=center;fillColor=none;html=1;verticalAlign=middle;whiteSpace=wrap;rounded=0;fontColor=#3333FF;" vertex="1" parent="1">
          <mxGeometry x="396" y="530" width="59" height="30" as="geometry" />
        </mxCell>
        <mxCell id="IpJIwdVtqQLgT5UMToAP-53" value="Public subnet A" style="points=[[0,0],[0.25,0],[0.5,0],[0.75,0],[1,0],[1,0.25],[1,0.5],[1,0.75],[1,1],[0.75,1],[0.5,1],[0.25,1],[0,1],[0,0.75],[0,0.5],[0,0.25]];outlineConnect=0;gradientColor=none;html=1;whiteSpace=wrap;fontSize=12;fontStyle=0;container=1;pointerEvents=0;collapsible=0;recursiveResize=0;shape=mxgraph.aws4.group;grIcon=mxgraph.aws4.group_security_group;grStroke=0;strokeColor=#248814;fillColor=#E9F3E6;verticalAlign=top;align=left;spacingLeft=30;fontColor=#3333FF;dashed=0;labelBorderColor=#FF9933;strokeWidth=1;" vertex="1" parent="1">
          <mxGeometry x="160" y="640" width="120" height="120" as="geometry" />
        </mxCell>
        <mxCell id="IpJIwdVtqQLgT5UMToAP-58" value="" style="sketch=0;outlineConnect=0;fontColor=#232F3E;gradientColor=none;fillColor=#4D27AA;strokeColor=none;dashed=0;verticalLabelPosition=bottom;verticalAlign=top;align=center;html=1;fontSize=12;fontStyle=0;aspect=fixed;pointerEvents=1;shape=mxgraph.aws4.nat_gateway;labelBorderColor=#FF9933;strokeWidth=1;" vertex="1" parent="IpJIwdVtqQLgT5UMToAP-53">
          <mxGeometry x="36" y="40" width="48" height="48" as="geometry" />
        </mxCell>
        <mxCell id="IpJIwdVtqQLgT5UMToAP-57" value="Public subnet B" style="points=[[0,0],[0.25,0],[0.5,0],[0.75,0],[1,0],[1,0.25],[1,0.5],[1,0.75],[1,1],[0.75,1],[0.5,1],[0.25,1],[0,1],[0,0.75],[0,0.5],[0,0.25]];outlineConnect=0;gradientColor=none;html=1;whiteSpace=wrap;fontSize=12;fontStyle=0;container=1;pointerEvents=0;collapsible=0;recursiveResize=0;shape=mxgraph.aws4.group;grIcon=mxgraph.aws4.group_security_group;grStroke=0;strokeColor=#248814;fillColor=#E9F3E6;verticalAlign=top;align=left;spacingLeft=30;fontColor=#0000CC;dashed=0;labelBorderColor=#FF9933;strokeWidth=1;" vertex="1" parent="1">
          <mxGeometry x="560" y="640" width="120" height="120" as="geometry" />
        </mxCell>
        <mxCell id="IpJIwdVtqQLgT5UMToAP-59" value="" style="sketch=0;outlineConnect=0;fontColor=#232F3E;gradientColor=none;fillColor=#4D27AA;strokeColor=none;dashed=0;verticalLabelPosition=bottom;verticalAlign=top;align=center;html=1;fontSize=12;fontStyle=0;aspect=fixed;pointerEvents=1;shape=mxgraph.aws4.nat_gateway;labelBorderColor=#FF9933;strokeWidth=1;" vertex="1" parent="IpJIwdVtqQLgT5UMToAP-57">
          <mxGeometry x="36" y="40" width="48" height="48" as="geometry" />
        </mxCell>
        <mxCell id="IpJIwdVtqQLgT5UMToAP-69" style="edgeStyle=orthogonalEdgeStyle;rounded=0;orthogonalLoop=1;jettySize=auto;html=1;exitX=0.5;exitY=1;exitDx=0;exitDy=0;exitPerimeter=0;fontColor=#0000CC;" edge="1" parent="1" source="IpJIwdVtqQLgT5UMToAP-61" target="IpJIwdVtqQLgT5UMToAP-45">
          <mxGeometry relative="1" as="geometry" />
        </mxCell>
        <mxCell id="IpJIwdVtqQLgT5UMToAP-61" value="" style="sketch=0;points=[[0,0,0],[0.25,0,0],[0.5,0,0],[0.75,0,0],[1,0,0],[0,1,0],[0.25,1,0],[0.5,1,0],[0.75,1,0],[1,1,0],[0,0.25,0],[0,0.5,0],[0,0.75,0],[1,0.25,0],[1,0.5,0],[1,0.75,0]];outlineConnect=0;fontColor=#232F3E;gradientColor=#945DF2;gradientDirection=north;fillColor=#5A30B5;strokeColor=#ffffff;dashed=0;verticalLabelPosition=bottom;verticalAlign=top;align=center;html=1;fontSize=12;fontStyle=0;aspect=fixed;shape=mxgraph.aws4.resourceIcon;resIcon=mxgraph.aws4.cloudfront;labelBorderColor=#FF9933;strokeWidth=1;" vertex="1" parent="1">
          <mxGeometry x="401.5" y="310" width="48" height="48" as="geometry" />
        </mxCell>
        <mxCell id="IpJIwdVtqQLgT5UMToAP-68" style="edgeStyle=orthogonalEdgeStyle;rounded=0;orthogonalLoop=1;jettySize=auto;html=1;fontColor=#0000CC;" edge="1" parent="1" source="IpJIwdVtqQLgT5UMToAP-62">
          <mxGeometry relative="1" as="geometry">
            <mxPoint x="400" y="333" as="targetPoint" />
          </mxGeometry>
        </mxCell>
        <mxCell id="IpJIwdVtqQLgT5UMToAP-62" value="" style="sketch=0;points=[[0,0,0],[0.25,0,0],[0.5,0,0],[0.75,0,0],[1,0,0],[0,1,0],[0.25,1,0],[0.5,1,0],[0.75,1,0],[1,1,0],[0,0.25,0],[0,0.5,0],[0,0.75,0],[1,0.25,0],[1,0.5,0],[1,0.75,0]];outlineConnect=0;fontColor=#232F3E;gradientColor=#F54749;gradientDirection=north;fillColor=#C7131F;strokeColor=#ffffff;dashed=0;verticalLabelPosition=bottom;verticalAlign=top;align=center;html=1;fontSize=12;fontStyle=0;aspect=fixed;shape=mxgraph.aws4.resourceIcon;resIcon=mxgraph.aws4.waf;labelBorderColor=#FF9933;strokeWidth=1;" vertex="1" parent="1">
          <mxGeometry x="195" y="308" width="50" height="50" as="geometry" />
        </mxCell>
        <mxCell id="IpJIwdVtqQLgT5UMToAP-71" style="edgeStyle=orthogonalEdgeStyle;rounded=0;orthogonalLoop=1;jettySize=auto;html=1;exitX=0.5;exitY=1;exitDx=0;exitDy=0;exitPerimeter=0;fontColor=#0000CC;entryX=0.5;entryY=0;entryDx=0;entryDy=0;entryPerimeter=0;" edge="1" parent="1" source="IpJIwdVtqQLgT5UMToAP-64" target="IpJIwdVtqQLgT5UMToAP-61">
          <mxGeometry relative="1" as="geometry">
            <mxPoint x="423" y="300" as="targetPoint" />
            <Array as="points">
              <mxPoint x="423" y="310" />
            </Array>
          </mxGeometry>
        </mxCell>
        <mxCell id="IpJIwdVtqQLgT5UMToAP-64" value="" style="sketch=0;points=[[0,0,0],[0.25,0,0],[0.5,0,0],[0.75,0,0],[1,0,0],[0,1,0],[0.25,1,0],[0.5,1,0],[0.75,1,0],[1,1,0],[0,0.25,0],[0,0.5,0],[0,0.75,0],[1,0.25,0],[1,0.5,0],[1,0.75,0]];outlineConnect=0;fontColor=#232F3E;gradientColor=#945DF2;gradientDirection=north;fillColor=#5A30B5;strokeColor=#ffffff;dashed=0;verticalLabelPosition=bottom;verticalAlign=top;align=center;html=1;fontSize=12;fontStyle=0;aspect=fixed;shape=mxgraph.aws4.resourceIcon;resIcon=mxgraph.aws4.route_53;labelBorderColor=#FF9933;strokeWidth=1;" vertex="1" parent="1">
          <mxGeometry x="401" y="160" width="44" height="44" as="geometry" />
        </mxCell>
        <mxCell id="IpJIwdVtqQLgT5UMToAP-72" style="edgeStyle=orthogonalEdgeStyle;rounded=0;orthogonalLoop=1;jettySize=auto;html=1;entryX=0;entryY=0.5;entryDx=0;entryDy=0;entryPerimeter=0;fontColor=#0000CC;" edge="1" parent="1" source="IpJIwdVtqQLgT5UMToAP-65" target="IpJIwdVtqQLgT5UMToAP-64">
          <mxGeometry relative="1" as="geometry" />
        </mxCell>
        <mxCell id="IpJIwdVtqQLgT5UMToAP-65" value="" style="verticalLabelPosition=bottom;sketch=0;aspect=fixed;html=1;verticalAlign=top;strokeColor=none;align=center;outlineConnect=0;shape=mxgraph.citrix.users;labelBorderColor=#FF9933;strokeWidth=1;fontColor=#0000CC;" vertex="1" parent="1">
          <mxGeometry x="270" y="164.5" width="41.05" height="35" as="geometry" />
        </mxCell>
        <mxCell id="IpJIwdVtqQLgT5UMToAP-66" value="Region" style="points=[[0,0],[0.25,0],[0.5,0],[0.75,0],[1,0],[1,0.25],[1,0.5],[1,0.75],[1,1],[0.75,1],[0.5,1],[0.25,1],[0,1],[0,0.75],[0,0.5],[0,0.25]];outlineConnect=0;gradientColor=none;html=1;whiteSpace=wrap;fontSize=12;fontStyle=0;container=1;pointerEvents=0;collapsible=0;recursiveResize=0;shape=mxgraph.aws4.group;grIcon=mxgraph.aws4.group_region;strokeColor=#147EBA;fillColor=none;verticalAlign=top;align=left;spacingLeft=30;fontColor=#147EBA;dashed=1;labelBorderColor=#FF9933;strokeWidth=1;" vertex="1" parent="1">
          <mxGeometry x="40" y="80" width="800" height="1440" as="geometry" />
        </mxCell>
        <mxCell id="IpJIwdVtqQLgT5UMToAP-74" value="Cloudfront" style="text;strokeColor=none;align=center;fillColor=none;html=1;verticalAlign=middle;whiteSpace=wrap;rounded=0;fontColor=#0000CC;" vertex="1" parent="IpJIwdVtqQLgT5UMToAP-66">
          <mxGeometry x="430" y="248" width="60" height="30" as="geometry" />
        </mxCell>
        <mxCell id="IpJIwdVtqQLgT5UMToAP-75" value="Route 53" style="text;strokeColor=none;align=center;fillColor=none;html=1;verticalAlign=middle;whiteSpace=wrap;rounded=0;fontColor=#0000CC;" vertex="1" parent="IpJIwdVtqQLgT5UMToAP-66">
          <mxGeometry x="430" y="80" width="60" height="30" as="geometry" />
        </mxCell>
        <mxCell id="IpJIwdVtqQLgT5UMToAP-76" value="WAF" style="text;strokeColor=none;align=center;fillColor=none;html=1;verticalAlign=middle;whiteSpace=wrap;rounded=0;fontColor=#0000CC;" vertex="1" parent="IpJIwdVtqQLgT5UMToAP-66">
          <mxGeometry x="90" y="240" width="60" height="30" as="geometry" />
        </mxCell>
        <mxCell id="IpJIwdVtqQLgT5UMToAP-79" value="users" style="text;strokeColor=none;align=center;fillColor=none;html=1;verticalAlign=middle;whiteSpace=wrap;rounded=0;fontColor=#0000CC;" vertex="1" parent="IpJIwdVtqQLgT5UMToAP-66">
          <mxGeometry x="160" y="90" width="60" height="30" as="geometry" />
        </mxCell>
      </root>
    </mxGraphModel>
  </diagram>
</mxfile>
